<svg width="375" height="852" viewBox="0 0 375 852" fill="none" xmlns="http://www.w3.org/2000/svg">
<g clip-path="url(#clip0_199511_123)">
<g clip-path="url(#clip1_199511_123)">
<path d="M395.382 680.629L411.251 690.184L367.158 814.671L347.437 821.746L338.626 811.728L336.181 803.645L365.12 732.589L372.146 726.077L369.312 719.335L382.332 686.092L395.382 680.629Z" fill="white"/>
<mask id="mask0_199511_123" style="mask-type:alpha" maskUnits="userSpaceOnUse" x="336" y="680" width="76" height="142">
<path d="M395.382 680.629L411.251 690.184L367.158 814.671L347.437 821.746L338.626 811.728L336.181 803.645L365.12 732.589L372.146 726.077L369.312 719.335L382.332 686.092L395.382 680.629Z" fill="white"/>
</mask>
<g mask="url(#mask0_199511_123)">
<path d="M362.843 745.198L365.041 738.79L371.217 737.864L373.316 731.673L367.206 732.589L369.326 726.53L363.205 727.38L360.965 733.526L358.679 739.814L352.241 740.782L349.791 747.298L343.111 748.44L340.506 755.251L347.306 754.022L353.986 752.88L356.35 746.243L362.843 745.198Z" fill="#C5E9DA"/>
<path d="M369.129 744.12L375.294 743.128L377.317 736.883L371.217 737.864L369.129 744.12Z" fill="#36B37E"/>
<path d="M360.523 751.695L366.94 750.595L369.128 744.121L362.843 745.2L360.523 751.695Z" fill="#36B37E"/>
<path d="M364.708 757.21L371.115 756.045L373.226 749.516L366.941 750.594L364.708 757.21Z" fill="#172B4D"/>
<path d="M358.181 758.463L360.523 751.695L353.986 752.881L351.512 759.67L349.004 766.667L355.783 765.307L362.442 764.034L364.708 757.211L358.181 758.463Z" fill="#172B4D"/>
<path d="M375.316 725.702L373.316 731.675L379.295 730.78L377.317 736.884L383.296 735.989L385.219 729.961L387.033 724.086L381.24 724.883L383.129 719.063L384.985 713.45L379.236 714.106L377.326 719.795L371.402 720.614L369.326 726.531L375.316 725.702Z" fill="#36B37E"/>
<path d="M373.357 714.781L367.422 715.534L365.336 721.386L371.402 720.612L373.357 714.781Z" fill="#172B4D"/>
<path d="M375.294 743.128L373.226 749.516L379.381 748.458L385.394 747.356L387.286 741.132L389.133 735.049L383.296 735.988L381.393 742.147L375.294 743.128Z" fill="#36B37E"/>
<path d="M375.299 761.561L377.39 754.9L371.114 756.045L368.903 762.791L375.299 761.561Z" fill="#36B37E"/>
<path d="M360.065 771.01L366.647 769.681L368.903 762.793L362.442 764.034L360.065 771.01Z" fill="#36B37E"/>
<path d="M365.336 721.388L359.205 722.173L356.943 728.188L363.205 727.382L365.336 721.388Z" fill="#36B37E"/>
</g>
<path d="M395.382 680.629L347.437 821.746L367.158 814.671L411.251 690.184L395.382 680.629Z" fill="#C5E9DA"/>
<path d="M395.382 680.629L411.251 690.184L367.158 814.671L347.437 821.746L338.626 811.728L336.181 803.645L365.12 732.589L372.146 726.077L369.312 719.335L382.332 686.092L395.382 680.629Z" stroke="#36B37E" stroke-width="1.57158" stroke-miterlimit="10" stroke-linejoin="round"/>
<path d="M395.247 735.411L384.434 735.536L378.29 730.807L372.147 726.077" stroke="#36B37E" stroke-width="1.57158" stroke-miterlimit="10" stroke-linejoin="round"/>
<path d="M384.434 735.535L376.236 736.854L367.984 761.257" stroke="#36B37E" stroke-width="1.57158" stroke-miterlimit="10" stroke-linejoin="round"/>
<path d="M365.929 767.306L355.285 756.775L336.181 803.644L338.626 811.727L347.437 821.745L365.929 767.306Z" fill="white" stroke="#36B37E" stroke-width="1.57158" stroke-miterlimit="10" stroke-linejoin="round"/>
<path d="M382.092 773.251L364.696 770.937L363.3 764.77L366.568 766.263L382.092 773.251Z" fill="#172B4D"/>
<path d="M347.437 821.747L400.761 813.167L430.275 808.418L413.772 791.161L336.181 803.645L338.626 811.728L347.437 821.747Z" fill="#172B4D"/>
</g>
</g>
<defs>
<clipPath id="clip0_199511_123">
<rect width="375" height="852" fill="white"/>
</clipPath>
<clipPath id="clip1_199511_123">
<rect width="92.8052" height="132.373" fill="white" transform="matrix(-0.987301 0.15886 0.15886 0.987301 409.627 678)"/>
</clipPath>
</defs>
</svg>
